<?xml version="1.0" encoding="UTF-8"?>
<svg id="Layer_1" data-name="Layer 1" xmlns="http://www.w3.org/2000/svg" viewBox="0 0 2140.91 431.75">
  <defs>
    <style>
      .cls-1 {
        fill: #133e5e;
      }
    </style>
  </defs>
  <path class="cls-1" d="m135.59,0L0,431.75h99.79l26.68-102.84h131.64l26.56,102.84h103.3L252.38,0h-116.79Zm51.83,253.04c-20.89,0-36.16-19.73-30.91-39.95h0c12-43.17,23.53-93.67,33.97-139.26h2.65c11.53,45.04,23.06,96.09,35.06,139.26v.03c5.23,20.22-10.03,39.92-30.91,39.92h-9.86Z"/>
  <path class="cls-1" d="m560.27,139.97V0h-97.61v431.75h97.61v-100.53c0-9.85,3.21-19.44,9.15-27.3h0c19.56-25.88,59.19-23.4,75.36,4.72l70.84,123.11h107.04l-138.99-233.22c-9.44-15.84-8.33-35.83,2.81-50.53L798.66,0h-107.28l-109.38,147.17c-6.93,9.32-21.73,4.42-21.73-7.19Z"/>
  <path class="cls-1" d="m1224.65,134.45c0-102.65-75.06-134.45-166.63-134.45h-155.49v431.75h97.61v-121.85c0-18.51,15.01-33.52,33.52-33.52h0c12.41,0,23.8,6.85,29.61,17.81l72.98,137.56h109.22l-88.78-156.92c-4.6-8.12-2.16-18.66,5.87-23.42,37.79-22.41,62.09-60.53,62.09-116.96Zm-224.51-56.95h49.93c51.34,0,78.92,14.26,78.92,56.95s-27.58,64.43-78.92,64.43h0c-27.58,0-49.93-22.36-49.93-49.93v-71.45Z"/>
  <path class="cls-1" d="m1482.69,250.42h103.85v-81.86h-103.85c-23.94,0-43.35-19.41-43.35-43.35h0c0-23.94,19.41-43.35,43.35-43.35h129.56V0h-270.52v431.75h277.14v-81.86h-136.19c-23.94,0-43.35-19.41-43.35-43.35v-12.77c0-23.94,19.41-43.35,43.35-43.35Z"/>
  <path class="cls-1" d="m2053.36,431.75h87.55V0h-87.15c-11.7,0-22.24,7.07-26.68,17.89l-25.59,62.4c-23.01,56.11-102.59,55.79-125.15-.51l-24.71-61.68c-4.38-10.94-14.98-18.11-26.76-18.11h-86.98v431.75h87.55V126.52h0c38.99,105.46,187.98,105.93,227.64.72l.27-.73v305.23Z"/>
</svg>